<svg width="58" height="37" viewBox="0 0 58 37" fill="none" xmlns="http://www.w3.org/2000/svg">
<rect y="0.270996" width="58" height="36" rx="5" fill="#111111"/>
<rect x="0.4" y="0.670996" width="57.2" height="35.2" rx="4.6" stroke="white" stroke-opacity="0.4" stroke-width="0.8"/>
<path d="M16.1675 13.3475C15.7078 13.8916 14.9722 14.3206 14.2366 14.2593C14.1447 13.5238 14.5048 12.7422 14.9262 12.2595C15.386 11.7001 16.1905 11.3016 16.8418 11.271C16.9185 12.0372 16.6196 12.7882 16.1675 13.3475ZM16.8342 14.4049C15.7691 14.3436 14.8573 15.0103 14.3515 15.0103C13.8382 15.0103 13.0643 14.4356 12.2214 14.4509C11.1257 14.4662 10.1066 15.0869 9.5472 16.0753C8.39784 18.0523 9.24837 20.9793 10.3594 22.5884C10.9035 23.3853 11.5548 24.2588 12.413 24.2282C13.2252 24.1975 13.547 23.6995 14.5278 23.6995C15.5162 23.6995 15.7997 24.2282 16.6579 24.2129C17.5468 24.1975 18.1061 23.416 18.6502 22.6191C19.2708 21.7149 19.5237 20.8337 19.539 20.7877C19.5237 20.7724 17.8226 20.1211 17.8073 18.1595C17.792 16.5198 19.1482 15.7382 19.2095 15.6922C18.4433 14.5582 17.2479 14.4356 16.8342 14.4049ZM22.9871 12.1828V24.1286H24.8414V20.0445H27.4083C29.753 20.0445 31.4005 18.4354 31.4005 16.106C31.4005 13.7766 29.7837 12.1828 27.4696 12.1828H22.9871ZM24.8414 13.746H26.9792C28.5884 13.746 29.5078 14.6042 29.5078 16.1137C29.5078 17.6232 28.5884 18.489 26.9716 18.489H24.8414V13.746ZM34.7873 24.2205C35.952 24.2205 37.0324 23.6305 37.5228 22.6957H37.5611V24.1286H39.2775V18.1825C39.2775 16.4585 37.8982 15.3474 35.7757 15.3474C33.8065 15.3474 32.3506 16.4738 32.297 18.0216H33.9674C34.1053 17.286 34.7873 16.8033 35.7221 16.8033C36.8561 16.8033 37.4921 17.332 37.4921 18.3051V18.9641L35.178 19.102C33.0249 19.2323 31.8602 20.1135 31.8602 21.6459C31.8602 23.1938 33.0632 24.2205 34.7873 24.2205ZM35.2853 22.803C34.2969 22.803 33.6686 22.3279 33.6686 21.6C33.6686 20.849 34.2739 20.4123 35.4309 20.3433L37.4921 20.2131V20.8874C37.4921 22.0061 36.542 22.803 35.2853 22.803ZM41.5685 27.3774C43.3769 27.3774 44.2274 26.6878 44.9706 24.596L48.2272 15.4623H46.3422L44.1584 22.5195H44.1201L41.9363 15.4623H39.9977L43.1393 24.1592L42.9707 24.6879C42.6872 25.5844 42.2275 25.9292 41.4076 25.9292C41.262 25.9292 40.9785 25.9139 40.8636 25.8986V27.3315C40.9709 27.3621 41.4306 27.3774 41.5685 27.3774Z" fill="white"/>
</svg>
