<svg width="58" height="37" viewBox="0 0 58 37" fill="none" xmlns="http://www.w3.org/2000/svg">
<rect y="0.270996" width="58" height="36" rx="5" fill="#111111"/>
<rect x="0.4" y="0.670996" width="57.2" height="35.2" rx="4.6" stroke="white" stroke-opacity="0.4" stroke-width="0.8"/>
<path d="M27.9297 19.2105V23.8301H26.4517V12.4217H30.3717C30.8396 12.412 31.3049 12.4943 31.7406 12.6638C32.1762 12.8333 32.5737 13.0867 32.9101 13.4093C33.2499 13.7124 33.5204 14.084 33.7032 14.4993C33.8861 14.9146 33.9773 15.3639 33.9705 15.817C33.9802 16.2725 33.8905 16.7247 33.7075 17.1427C33.5245 17.5606 33.2525 17.9343 32.9101 18.2383C32.2247 18.8864 31.3785 19.2102 30.3717 19.2095H27.9297V19.2105ZM27.9297 13.8262V17.8086H30.4085C30.6802 17.8166 30.9506 17.7683 31.2025 17.6667C31.4543 17.5652 31.6819 17.4126 31.8709 17.2188C32.0589 17.0376 32.2083 16.8209 32.3103 16.5814C32.4123 16.342 32.4649 16.0847 32.4649 15.8247C32.4649 15.5648 32.4123 15.3075 32.3103 15.068C32.2083 14.8286 32.0589 14.6118 31.8709 14.4306C31.6843 14.2327 31.4574 14.0764 31.2053 13.9721C30.9532 13.8677 30.6816 13.8177 30.4085 13.8253H27.9297V13.8262ZM37.3764 15.7696C38.4689 15.7696 39.3313 16.0591 39.9635 16.638C40.5957 17.217 40.9115 18.0107 40.9109 19.0193V23.8301H39.4971V22.7469H39.4329C38.8208 23.6389 38.0068 24.085 36.9909 24.085C36.1236 24.085 35.398 23.8301 34.8142 23.3203C34.534 23.0864 34.3099 22.7934 34.1584 22.4627C34.0069 22.132 33.9317 21.7719 33.9384 21.4088C33.9384 20.601 34.2462 19.9587 34.8619 19.4817C35.4776 19.0047 36.2996 18.7656 37.3278 18.7644C38.2054 18.7644 38.9283 18.9237 39.4962 19.2423V18.9073C39.4979 18.6598 39.444 18.4149 39.3384 18.1906C39.2328 17.9662 39.0782 17.768 38.8857 17.6102C38.4949 17.2606 37.9855 17.0698 37.4591 17.0759C36.6334 17.0759 35.9801 17.4212 35.499 18.1118L34.1972 17.2989C34.9133 16.2794 35.9731 15.7696 37.3764 15.7696ZM35.4641 21.4406C35.4632 21.6271 35.5071 21.8112 35.5924 21.9774C35.6777 22.1437 35.8018 22.2873 35.9544 22.3964C36.2813 22.6514 36.687 22.7864 37.1029 22.7787C37.7266 22.7777 38.3245 22.5315 38.7655 22.0942C39.2551 21.6372 39.4999 21.1011 39.4999 20.4857C39.039 20.1216 38.3964 19.9396 37.572 19.9396C36.9716 19.9396 36.4709 20.0831 36.0701 20.3701C35.6652 20.6614 35.4641 21.0155 35.4641 21.4406ZM49.0265 16.0245L44.0911 27.2709H42.5653L44.3968 23.3358L41.1515 16.0245H42.758L45.1037 21.6318H45.1358L47.4171 16.0245H49.0265Z" fill="white"/>
<path d="M21.9568 18.2147C21.9573 17.7681 21.9193 17.3222 21.8429 16.8821H15.6094V19.4063H19.1797C19.1066 19.8094 18.952 20.1937 18.7251 20.536C18.4982 20.8783 18.2038 21.1715 17.8595 21.3979V23.0364H19.9903C21.2379 21.8958 21.9568 20.2091 21.9568 18.2147Z" fill="#4285F4"/>
<path d="M15.6099 24.6194C17.3937 24.6194 18.8956 24.0386 19.9908 23.0374L17.8601 21.3989C17.267 21.7976 16.5032 22.0251 15.6099 22.0251C13.8858 22.0251 12.4224 20.8727 11.8992 19.3198H9.7041V21.0084C10.2543 22.0938 11.0979 23.0063 12.1407 23.644C13.1836 24.2816 14.3847 24.6193 15.6099 24.6194Z" fill="#34A853"/>
<path d="M11.8989 19.3201C11.6223 18.5063 11.6223 17.6251 11.8989 16.8114V15.1228H9.70384C9.24103 16.0359 9 17.0437 9 18.0657C9 19.0877 9.24103 20.0955 9.70384 21.0086L11.8989 19.3201Z" fill="#FBBC04"/>
<path d="M15.6099 14.1059C16.5526 14.0907 17.4634 14.4438 18.1456 15.089L20.0322 13.2184C18.8359 12.1043 17.251 11.4927 15.6099 11.5117C14.3847 11.5117 13.1836 11.8494 12.1407 12.4871C11.0979 13.1247 10.2543 14.0372 9.7041 15.1227L11.8992 16.8113C12.4224 15.2583 13.8858 14.1059 15.6099 14.1059Z" fill="#EA4335"/>
</svg>
