<svg width="22" height="23" viewBox="0 0 22 23" fill="none" xmlns="http://www.w3.org/2000/svg">
<path d="M16 1.271H6C3.23858 1.271 1 3.50957 1 6.271V16.271C1 19.0324 3.23858 21.271 6 21.271H16C18.7614 21.271 21 19.0324 21 16.271V6.271C21 3.50957 18.7614 1.271 16 1.271Z" stroke="white" stroke-width="1.5" stroke-linecap="round" stroke-linejoin="round"/>
<path d="M15.0002 10.6411C15.1236 11.4733 14.9815 12.3233 14.594 13.0701C14.2065 13.8169 13.5933 14.4225 12.8418 14.8007C12.0903 15.179 11.2386 15.3107 10.408 15.177C9.57732 15.0433 8.80996 14.6511 8.21503 14.0562C7.62011 13.4613 7.22793 12.6939 7.09426 11.8633C6.9606 11.0326 7.09226 10.1809 7.47052 9.42943C7.84878 8.67791 8.45438 8.06479 9.20118 7.67729C9.94798 7.2898 10.7979 7.14764 11.6302 7.27105C12.4791 7.39694 13.265 7.79252 13.8719 8.39936C14.4787 9.0062 14.8743 9.79213 15.0002 10.6411Z" stroke="white" stroke-width="1.5" stroke-linecap="round" stroke-linejoin="round"/>
<path d="M16.5 5.771H16.51" stroke="white" stroke-width="1.5" stroke-linecap="round" stroke-linejoin="round"/>
</svg>
