<svg width="58" height="37" viewBox="0 0 58 37" fill="none" xmlns="http://www.w3.org/2000/svg">
<rect y="0.270996" width="58" height="36" rx="5" fill="#111111"/>
<rect x="0.4" y="0.670996" width="57.2" height="35.2" rx="4.6" stroke="white" stroke-opacity="0.4" stroke-width="0.8"/>
<path d="M32.4692 11.186H24.5298V25.268H32.4692V11.186Z" fill="#FF5F00"/>
<path d="M25.0344 18.2286C25.033 16.8722 25.3442 15.5333 25.9447 14.3132C26.5451 13.0931 27.4189 12.0238 28.5 11.1864C27.1615 10.1481 25.5539 9.50251 23.8612 9.3233C22.1684 9.14409 20.4587 9.43852 18.9274 10.1729C17.3962 10.9074 16.1052 12.0521 15.202 13.4764C14.2988 14.9007 13.8198 16.5471 13.8198 18.2273C13.8198 19.9076 14.2988 21.5539 15.202 22.9782C16.1052 24.4025 17.3962 25.5473 18.9274 26.2817C20.4587 27.0162 22.1684 27.3106 23.8612 27.1314C25.5539 26.9522 27.1615 26.3065 28.5 25.2683C27.4193 24.4311 26.5456 23.3622 25.9452 22.1426C25.3448 20.923 25.0333 19.5845 25.0344 18.2286Z" fill="#EB001B"/>
<path d="M43.1815 18.2284C43.1815 19.9088 42.7024 21.5552 41.799 22.9796C40.8957 24.4039 39.6045 25.5487 38.0731 26.283C36.5416 27.0173 34.8317 27.3116 33.1389 27.1321C31.446 26.9526 29.8385 26.3067 28.5 25.2681C29.5803 24.4302 30.4537 23.361 31.0543 22.1413C31.6549 20.9216 31.9669 19.5832 31.9669 18.2272C31.9669 16.8711 31.6549 15.5327 31.0543 14.313C30.4537 13.0933 29.5803 12.0241 28.5 11.1862C29.8385 10.1476 31.446 9.50169 33.1389 9.32222C34.8317 9.14275 36.5416 9.43699 38.0731 10.1713C39.6045 10.9056 40.8957 12.0504 41.799 13.4747C42.7024 14.8991 43.1815 16.5455 43.1815 18.2259V18.2284Z" fill="#F79E1B"/>
</svg>
