<svg width="58" height="37" viewBox="0 0 58 37" fill="none" xmlns="http://www.w3.org/2000/svg">
<rect y="0.270996" width="58" height="36" rx="5" fill="#111111"/>
<rect x="0.4" y="0.670996" width="57.2" height="35.2" rx="4.6" stroke="white" stroke-opacity="0.4" stroke-width="0.8"/>
<path d="M25.8431 24.071H22.5792L24.6191 12.4781H27.8833L25.8431 24.071ZM19.8334 12.4781L16.7218 20.4518L16.3536 18.7348L16.3539 18.7354L15.2557 13.5219C15.2557 13.5219 15.1229 12.4781 13.7074 12.4781H8.56329L8.50293 12.6744C8.50293 12.6744 10.076 12.9771 11.917 13.9995L14.7527 24.0713H18.1534L23.3462 12.4781H19.8334ZM45.5055 24.071H48.5025L45.8895 12.4778H43.2658C42.0542 12.4778 41.7591 13.3418 41.7591 13.3418L36.8913 24.071H40.2936L40.974 22.349H45.1232L45.5055 24.071ZM41.914 19.9702L43.6289 15.6319L44.5937 19.9702H41.914ZM37.1465 15.266L37.6122 12.7765C37.6122 12.7765 36.175 12.271 34.6767 12.271C33.057 12.271 29.2106 12.9256 29.2106 16.1088C29.2106 19.1038 33.725 19.141 33.725 20.7141C33.725 22.2873 29.6757 22.0054 28.3394 21.0134L27.8541 23.6164C27.8541 23.6164 29.3115 24.271 31.5382 24.271C33.7655 24.271 37.1257 23.2046 37.1257 20.302C37.1257 17.2878 32.5707 17.0072 32.5707 15.6967C32.5711 14.3859 35.7498 14.5543 37.1465 15.266Z" fill="#2566AF"/>
<path d="M16.3539 18.735L15.2557 13.5216C15.2557 13.5216 15.1229 12.4778 13.7074 12.4778H8.56329L8.50293 12.6741C8.50293 12.6741 10.9754 13.1479 13.3469 14.9232C15.6145 16.6201 16.3539 18.735 16.3539 18.735Z" fill="#E6A540"/>
</svg>
