<svg width="28" height="23" viewBox="0 0 28 23" fill="none" xmlns="http://www.w3.org/2000/svg">
<path d="M26.4557 4.40166C26.3153 3.7877 26.0294 3.22516 25.6269 2.77087C25.2244 2.31659 24.7194 1.98663 24.1631 1.81433C22.1305 1.271 14 1.271 14 1.271C14 1.271 5.86951 1.271 3.83689 1.86608C3.28058 2.03838 2.77565 2.36833 2.3731 2.82262C1.97056 3.27691 1.68466 3.83944 1.54428 4.4534C1.17228 6.71156 0.990319 9.00232 1.00068 11.2969C0.987415 13.6087 1.16939 15.9169 1.54428 18.1921C1.69905 18.787 1.99135 19.3281 2.39296 19.7632C2.79456 20.1983 3.29189 20.5127 3.83689 20.6759C5.86951 21.271 14 21.271 14 21.271C14 21.271 22.1305 21.271 24.1631 20.6759C24.7194 20.5036 25.2244 20.1737 25.6269 19.7194C26.0294 19.2651 26.3153 18.7025 26.4557 18.0886C26.8249 15.8474 27.0068 13.5741 26.9993 11.2969C27.0126 8.98504 26.8306 6.67682 26.4557 4.40166V4.40166Z" stroke="white" stroke-width="1.5" stroke-linecap="round" stroke-linejoin="round"/>
<path d="M11 15.271L18 11.271L11 7.271V15.271Z" stroke="white" stroke-width="1.5" stroke-linecap="round" stroke-linejoin="round"/>
</svg>
